<?xml version="1.0" encoding="UTF-8" standalone="no"?><!DOCTYPE svg PUBLIC "-//W3C//DTD SVG 1.1//EN" "http://www.w3.org/Graphics/SVG/1.1/DTD/svg11.dtd"><svg width="100%" height="100%" viewBox="0 0 1134 709" version="1.1" xmlns="http://www.w3.org/2000/svg" xmlns:xlink="http://www.w3.org/1999/xlink" xml:space="preserve" xmlns:serif="http://www.serif.com/" style="fill-rule:evenodd;clip-rule:evenodd;stroke-linejoin:round;stroke-miterlimit:2;"><path d="M1156.54,487.173c22.678,49.728 10.394,182.748 -22.677,221.488c-33.071,38.741 -134.173,0 -198.425,0l-759.685,0c-58.583,0 -127.141,57.355 -181.143,0c-54.383,-57.758 3.574,-150.978 5.395,-198.425c3.79,-98.782 107.851,-129.887 158.74,-113.386c53.12,17.225 142.466,44.532 147.402,45.355c82.976,13.829 127.58,-6.707 159.977,-39.685c33.831,-34.439 54.349,-82.447 91.351,-119.055c34.657,-34.289 83.043,-58.565 117.176,-56.693c68.02,3.729 117.905,49.909 153.071,85.039c34.455,34.42 109.354,88.891 170.078,98.481c83.346,13.163 137.829,31.026 158.74,76.881Z" style="fill:#fff;stroke:#fff;stroke-width:0.24px;stroke-linecap:round;stroke-miterlimit:1.5;"/></svg>