<?xml version="1.0" encoding="UTF-8" standalone="no"?><!DOCTYPE svg PUBLIC "-//W3C//DTD SVG 1.1//EN" "http://www.w3.org/Graphics/SVG/1.1/DTD/svg11.dtd"><svg width="100%" height="100%" viewBox="0 0 1134 709" version="1.1" xmlns="http://www.w3.org/2000/svg" xmlns:xlink="http://www.w3.org/1999/xlink" xml:space="preserve" xmlns:serif="http://www.serif.com/" style="fill-rule:evenodd;clip-rule:evenodd;stroke-linejoin:round;stroke-miterlimit:2;"><path d="M-15.519,42.083c14.289,7.144 28.259,55.529 106.881,71.254c65.013,13.003 213.292,22.025 252.203,138.758c24.755,74.265 0.922,74.561 0.938,152.822c0.012,64.629 45.512,103.762 109.04,135.027c69.832,34.366 158.715,38.026 199.858,163.048c9.732,29.571 -99.909,20.707 -106.386,21.632c-45.01,6.43 -98.135,-9.792 -226.889,0.938c-117.464,9.788 -117.637,-9.053 -235.327,-0c-59.306,4.562 -118.948,12.154 -110.632,-54.379c1.01,-8.074 22.667,-55.051 19.689,-144.383c-2.636,-79.095 -8.058,-78.823 -2.812,-157.51c7.448,-111.731 6.475,-111.682 -2.813,-223.139c-0.593,-7.11 -3.75,-104.068 -3.75,-104.068Z" style="fill:#fff;"/></svg>