<?xml version="1.0" encoding="UTF-8" standalone="no"?><!DOCTYPE svg PUBLIC "-//W3C//DTD SVG 1.1//EN" "http://www.w3.org/Graphics/SVG/1.1/DTD/svg11.dtd"><svg width="100%" height="100%" viewBox="0 0 709 709" version="1.1" xmlns="http://www.w3.org/2000/svg" xmlns:xlink="http://www.w3.org/1999/xlink" xml:space="preserve" xmlns:serif="http://www.serif.com/" style="fill-rule:evenodd;clip-rule:evenodd;stroke-linejoin:round;stroke-miterlimit:2;"><path d="M447.874,79.37c-52.913,-12.283 -140.787,-22.677 -192.756,-17.008c-42.921,4.683 -89.764,25.512 -119.055,51.024c-29.291,25.512 -51.058,63.545 -56.693,102.047c-5.669,38.74 22.677,87.874 22.677,130.394c0,42.256 -22.677,86.929 -22.677,124.724c0,34.846 -0.945,80.315 22.677,102.047c23.622,21.733 78.516,32.902 119.055,28.347c42.048,-4.725 94.489,-56.693 133.229,-56.693c38.089,-0 66.614,53.858 99.212,56.693c32.599,2.835 79.506,-9.314 96.378,-39.685c18.898,-34.016 4.725,-117.166 17.008,-164.41c11.061,-42.54 55.748,-75.59 56.693,-119.055c0.945,-43.464 -21.732,-108.661 -51.024,-141.732c-29.291,-33.071 -80.239,-46.366 -124.724,-56.693Z" style="fill:#358ef1;"/></svg>