<?xml version="1.0" encoding="UTF-8" standalone="no"?><!DOCTYPE svg PUBLIC "-//W3C//DTD SVG 1.1//EN" "http://www.w3.org/Graphics/SVG/1.1/DTD/svg11.dtd"><svg width="100%" height="100%" viewBox="0 0 709 709" version="1.1" xmlns="http://www.w3.org/2000/svg" xmlns:xlink="http://www.w3.org/1999/xlink" xml:space="preserve" xmlns:serif="http://www.serif.com/" style="fill-rule:evenodd;clip-rule:evenodd;stroke-linejoin:round;stroke-miterlimit:2;"><path d="M217.567,256.07c3.874,-10.717 15.876,-16.594 25.324,-22.965c9.849,-6.641 26.732,-7.035 33.766,-16.883c7.035,-9.848 10.471,-28.004 8.442,-42.207c-4.221,-29.545 -23.483,-107.021 -33.766,-135.064c-4.978,-13.576 -15.661,-27.659 -27.932,-33.19c-12.271,-5.532 -30.652,-1.86 -45.693,-0c-15.042,1.859 -30.487,5.119 -44.556,11.158c-15.867,6.811 -37.621,19.091 -50.648,29.708c-11.301,9.21 -20.205,21.383 -27.516,33.995c-7.415,12.79 -13.202,27.885 -16.972,42.744c-3.856,15.194 -6.095,32.149 -6.161,48.418c-0.073,17.89 1.4,39.669 5.726,58.923c4.508,20.069 13.836,43.378 21.323,61.488c6.718,16.249 15.475,31.581 23.6,47.174c8.34,16.007 17.084,32.889 26.446,48.872c9.484,16.193 19.523,32.713 30.462,48.285c12.475,17.758 31.363,41.519 44.389,58.264c11.062,14.222 21.646,28.876 33.766,42.208c14.069,15.476 35.854,37.09 50.649,50.648c12.028,11.023 24.985,21.023 38.12,30.701c19.696,14.512 57.259,43.198 80.06,56.371c17.637,10.189 37.633,17.483 56.745,22.667c18.834,5.109 38.417,8.442 57.931,8.442c21.055,-0 49.529,-2.814 68.403,-8.442c16.45,-4.905 31.739,-15.476 44.841,-25.324c12.723,-9.564 24.343,-20.937 33.765,-33.766c9.849,-13.408 21.104,-30.215 25.325,-46.685c4.22,-16.471 4.844,-39.623 -0,-52.138c-4.457,-11.513 -18.012,-17.457 -29.067,-22.952c-25.324,-12.589 -98.179,-42.518 -122.88,-52.581c-8.179,-3.332 -16.817,-10.173 -25.324,-7.798c-9.848,2.75 -25.324,15.905 -33.766,24.298c-7.339,7.297 -10.67,18.857 -16.883,26.057c-5.801,6.724 -11.512,17.212 -20.392,17.145c-9.849,-0.074 -26.534,-10.323 -38.698,-17.591c-13.484,-8.056 -29.545,-20.721 -42.207,-30.747c-11.702,-9.266 -23.245,-18.823 -33.766,-29.411c-11.255,-11.328 -23.228,-25.109 -33.766,-38.554c-11.255,-14.361 -23.561,-31.235 -33.766,-47.611c-10.156,-16.3 -23.241,-33.373 -27.462,-50.649c-4.197,-17.178 -2.439,-40.346 2.138,-53.008Z" style="fill:#fff;"/></svg>