<?xml version="1.0" encoding="UTF-8" standalone="no"?><!DOCTYPE svg PUBLIC "-//W3C//DTD SVG 1.1//EN" "http://www.w3.org/Graphics/SVG/1.1/DTD/svg11.dtd"><svg width="100%" height="100%" viewBox="0 0 709 709" version="1.1" xmlns="http://www.w3.org/2000/svg" xmlns:xlink="http://www.w3.org/1999/xlink" xml:space="preserve" xmlns:serif="http://www.serif.com/" style="fill-rule:evenodd;clip-rule:evenodd;stroke-linejoin:round;stroke-miterlimit:2;"><path d="M410.856,465.508l-0,188.8c-0,22.249 -18.063,40.312 -40.311,40.312l-34.553,-0c-22.248,-0 -40.311,-18.063 -40.311,-40.312l-0,-188.8c-0,-22.248 18.063,-40.311 40.311,-40.311l34.553,-0c22.248,-0 40.311,18.063 40.311,40.311Z" style="fill:#fff;"/><path d="M696.862,339.018l-313.176,-313.177c-15.732,-15.732 -41.277,-15.732 -57.009,-0l-24.432,24.432c-15.732,15.732 -15.732,41.277 -0,57.009l313.177,313.177c15.732,15.731 41.276,15.731 57.008,-0l24.432,-24.433c15.732,-15.732 15.732,-41.276 0,-57.008Z" style="fill:#fff;"/><path d="M408.926,107.883l-313.177,313.177c-15.732,15.732 -41.277,15.732 -57.009,-0l-24.432,-24.432c-15.732,-15.732 -15.732,-41.277 -0,-57.009l313.177,-313.177c15.732,-15.732 41.277,-15.732 57.008,0l24.433,24.432c15.732,15.732 15.732,41.277 -0,57.009Z" style="fill:#fff;"/><path d="M552.206,465.508l0,188.8c0,22.249 -18.062,40.312 -40.311,40.312l-34.552,-0c-22.248,-0 -40.311,-18.063 -40.311,-40.312l-0,-188.8c-0,-22.248 18.063,-40.311 40.311,-40.311l34.552,-0c22.249,-0 40.311,18.063 40.311,40.311Z" style="fill:#fff;"/><path d="M269.505,465.508l-0,188.8c-0,22.249 -18.063,40.312 -40.311,40.312l-34.553,-0c-22.248,-0 -40.311,-18.063 -40.311,-40.312l0,-188.8c0,-22.248 18.063,-40.311 40.311,-40.311l34.553,-0c22.248,-0 40.311,18.063 40.311,40.311Z" style="fill:#fff;"/></svg>