<?xml version="1.0" encoding="UTF-8" standalone="no"?><!DOCTYPE svg PUBLIC "-//W3C//DTD SVG 1.1//EN" "http://www.w3.org/Graphics/SVG/1.1/DTD/svg11.dtd"><svg width="100%" height="100%" viewBox="0 0 709 709" version="1.1" xmlns="http://www.w3.org/2000/svg" xmlns:xlink="http://www.w3.org/1999/xlink" xml:space="preserve" xmlns:serif="http://www.serif.com/" style="fill-rule:evenodd;clip-rule:evenodd;stroke-linecap:round;stroke-linejoin:round;stroke-miterlimit:1.5;"><path d="M170.079,651.969c-15.036,-0 -29.456,-5.973 -40.088,-16.605c-10.632,-10.632 -16.605,-25.053 -16.605,-40.088l-0,-379.843c-0,-15.655 12.691,-28.346 28.346,-28.346l42.52,-0c15.655,-0 28.346,12.691 28.346,28.346l0,308.976c0,7.518 2.987,14.728 8.303,20.044c5.316,5.316 12.526,8.303 20.044,8.303l123.307,-0c7.518,-0 14.728,2.986 20.044,8.302c5.316,5.316 8.302,12.526 8.302,20.044l0,42.52c0,15.655 -12.691,28.347 -28.346,28.347l-194.173,-0Z" style="fill:none;stroke:#fff;stroke-width:15px;"/><path d="M418.11,91.732c97.216,0 176.142,78.927 176.142,176.142c-0,97.215 -78.926,176.142 -176.142,176.142c-97.215,-0 -176.141,-78.927 -176.141,-176.142c-0,-97.215 78.926,-176.142 176.141,-176.142Zm0,100c-42.024,0 -76.141,34.118 -76.141,76.142c-0,42.024 34.117,76.142 76.141,76.142c42.024,-0 76.142,-34.118 76.142,-76.142c-0,-42.024 -34.118,-76.142 -76.142,-76.142Z" style="fill:none;stroke:#fff;stroke-width:15px;stroke-linecap:butt;stroke-miterlimit:2;"/><path d="M505.251,461.576c10.701,-25.437 40.04,-37.4 65.476,-26.699c25.437,10.701 37.4,40.04 26.699,65.476c-7.837,18.629 -23.915,55.684 -39.217,77.423c-15.061,21.397 -41.686,44.472 -55.202,55.808c-21.142,17.734 -52.706,14.967 -70.44,-6.176c-17.734,-21.143 -14.967,-52.706 6.176,-70.441c9.064,-7.602 27.593,-22.401 37.693,-36.751c11.52,-16.365 22.915,-44.615 28.815,-58.64Z" style="fill:none;stroke:#fff;stroke-width:15px;stroke-linecap:butt;stroke-miterlimit:2;"/></svg>