<?xml version="1.0" encoding="UTF-8" standalone="no"?><!DOCTYPE svg PUBLIC "-//W3C//DTD SVG 1.1//EN" "http://www.w3.org/Graphics/SVG/1.1/DTD/svg11.dtd"><svg width="100%" height="100%" viewBox="0 0 709 709" version="1.1" xmlns="http://www.w3.org/2000/svg" xmlns:xlink="http://www.w3.org/1999/xlink" xml:space="preserve" xmlns:serif="http://www.serif.com/" style="fill-rule:evenodd;clip-rule:evenodd;stroke-linejoin:round;stroke-miterlimit:2;"><path d="M277.469,316.156l-111.35,-111.35l-43.707,-15.192l-67.573,-96.01l44.435,-44.434l96.009,67.573l15.192,43.706l111.351,111.351l-44.357,44.356Zm167.088,65.703l20.252,20.252l25.347,-25.347l151.42,151.421c25.341,29.814 23.781,74.81 -4.565,103.157c-28.346,28.346 -73.343,29.906 -103.157,4.565l-151.42,-151.42l25.346,-25.347l-20.252,-20.252l57.029,-57.029Z" style="fill:#fff;"/><path d="M655.22,133.446c10.328,37.963 0.489,80.405 -29.455,110.349c-44.341,44.341 -116.084,44.597 -160.11,0.571c-44.026,-44.026 -43.77,-115.769 0.57,-160.11c29.945,-29.944 72.387,-39.783 110.35,-29.455l-69.903,69.902c-0.501,0.501 -0.99,1.009 -1.469,1.524c-20.383,21.948 -20.017,56.197 1.188,77.403c21.205,21.205 55.455,21.571 77.403,1.187c0.514,-0.478 1.023,-0.967 1.524,-1.468l69.902,-69.903Z" style="fill:#fff;"/><path d="M62.105,569.271c-10.328,-37.963 -0.49,-80.405 29.455,-110.349c44.341,-44.341 116.084,-44.597 160.11,-0.571c44.026,44.026 43.77,115.769 -0.571,160.11c-29.944,29.944 -72.386,39.783 -110.349,29.455l69.902,-69.902c0.501,-0.501 0.991,-1.009 1.469,-1.524c20.384,-21.948 20.018,-56.197 -1.187,-77.403c-21.206,-21.205 -55.455,-21.571 -77.403,-1.187c-0.515,0.478 -1.023,0.967 -1.524,1.469l-69.902,69.902Z" style="fill:#fff;"/><path d="M530.867,242.071l-283.127,283.126l-62.916,-62.916l283.126,-283.127l62.917,62.917Z" style="fill:#fff;"/></svg>