<?xml version="1.0" encoding="UTF-8" standalone="no"?><!DOCTYPE svg PUBLIC "-//W3C//DTD SVG 1.1//EN" "http://www.w3.org/Graphics/SVG/1.1/DTD/svg11.dtd"><svg width="100%" height="100%" viewBox="0 0 346 195" version="1.1" xmlns="http://www.w3.org/2000/svg" xmlns:xlink="http://www.w3.org/1999/xlink" xml:space="preserve" xmlns:serif="http://www.serif.com/" style="fill-rule:evenodd;clip-rule:evenodd;stroke-linejoin:round;stroke-miterlimit:2;"><path d="M-0.165,32.4c26.002,-1.04 28.088,-7.609 54.359,12.093c23.706,17.78 33.996,9.149 59.206,4.107c19.487,-3.897 34.755,-4.533 52.561,4.37c16.754,8.377 17.305,6.907 36.105,6.907c13.962,0 27.446,10.791 42.734,33.723c3.558,5.337 8.919,27.801 -0.978,40.998c-18.6,24.8 -33.56,22.861 -41.442,24.174c-15.383,2.564 -27.897,18.331 -61.98,21.228c-22.423,1.906 -66.053,-16.907 -88.404,-12.437c-2.962,0.593 -12.905,0.872 -25.744,4.082c-17.791,4.447 -24.462,2.132 -26.417,1.155" style="fill:#f00;"/></svg>