<?xml version="1.0" encoding="UTF-8" standalone="no"?><!DOCTYPE svg PUBLIC "-//W3C//DTD SVG 1.1//EN" "http://www.w3.org/Graphics/SVG/1.1/DTD/svg11.dtd"><svg width="100%" height="100%" viewBox="0 0 346 195" version="1.1" xmlns="http://www.w3.org/2000/svg" xmlns:xlink="http://www.w3.org/1999/xlink" xml:space="preserve" xmlns:serif="http://www.serif.com/" style="fill-rule:evenodd;clip-rule:evenodd;stroke-linejoin:round;stroke-miterlimit:2;"><path d="M-0.165,68.4c22.064,-11.032 39.751,-24.362 59.94,-19.6c17.203,4.057 26.62,25.05 63.297,23.125c16.981,-0.891 39.751,-27.639 59.32,-18.318c7.14,3.401 15.06,14.148 17.583,25.866c4.444,20.635 6.265,20.045 14.984,32.546c6.301,9.035 9.698,21.481 7.809,29.433c-2.594,10.915 -15.263,24.566 -22.584,26.563c-12.166,3.318 -37.694,-5.494 -52.584,1.185c-7.945,3.564 -25.237,16.471 -43.075,17.853c-7.38,0.571 -34.275,-2.951 -51.906,-10.737c-9.46,-4.177 -9.268,-4.672 -19.253,-7.452c-21.424,-5.967 -32.166,-0.864 -33.366,0.336l-0.165,-100.8Z" style="fill:#f00;"/><path d="M122.4,18c-8.334,8.564 -4.976,20.686 9.586,23.944c22.827,5.107 24.804,-15.023 21.889,-22.636c-3.593,-9.387 -20.963,-12.11 -31.475,-1.308Z" style="fill:#f00;"/></svg>