<?xml version="1.0" encoding="UTF-8" standalone="no"?><!DOCTYPE svg PUBLIC "-//W3C//DTD SVG 1.1//EN" "http://www.w3.org/Graphics/SVG/1.1/DTD/svg11.dtd"><svg width="100%" height="100%" viewBox="0 0 346 195" version="1.1" xmlns="http://www.w3.org/2000/svg" xmlns:xlink="http://www.w3.org/1999/xlink" xml:space="preserve" xmlns:serif="http://www.serif.com/" style="fill-rule:evenodd;clip-rule:evenodd;stroke-linejoin:round;stroke-miterlimit:2;"><path d="M0,45c-1.702,-1.702 9.884,-8.705 29.009,4.971c4.863,3.478 13.262,16.547 49.792,0.149c1.137,-0.51 2.216,-1.142 3.348,-1.664c0.9,-0.415 18.531,-9.389 35.299,-9.839c12.552,-0.337 18.193,4.911 20.648,7.455c7.514,7.79 23.798,29.759 38.686,30.911c4.944,0.382 20.401,-1.058 26.618,7.617c3.378,4.713 6.198,9.38 3.6,23.4c-2.697,14.558 -5.286,12.515 -4.256,28.196c0.657,9.992 1.505,25.58 -11.944,29.404c-18.185,5.17 -36.621,-17.861 -59.087,-21.033c-12.487,-1.763 -30.865,5.039 -41.713,12.033c-11.266,7.263 -22.311,20.313 -39.6,21.6c-16.651,1.24 -46.231,-14.116 -50.4,-16.2l-0,-117Z" style="fill:#f00;"/></svg>