<?xml version="1.0" encoding="UTF-8" standalone="no"?><!DOCTYPE svg PUBLIC "-//W3C//DTD SVG 1.1//EN" "http://www.w3.org/Graphics/SVG/1.1/DTD/svg11.dtd"><svg width="100%" height="100%" viewBox="0 0 709 709" version="1.1" xmlns="http://www.w3.org/2000/svg" xmlns:xlink="http://www.w3.org/1999/xlink" xml:space="preserve" xmlns:serif="http://www.serif.com/" style="fill-rule:evenodd;clip-rule:evenodd;stroke-linecap:round;stroke-linejoin:round;stroke-miterlimit:1.5;"><path d="M322.237,255.204c0,-4.976 -1.31,-9.864 -3.798,-14.173c-7.569,-13.11 -24.568,-42.554 -33.463,-57.961c-1.504,-2.604 -1.911,-5.699 -1.133,-8.604c0.778,-2.905 2.679,-5.381 5.283,-6.885c3.597,-2.076 7.665,-4.425 11.261,-6.502c5.424,-3.131 12.358,-1.273 15.489,4.15c4.054,7.022 9.614,16.651 14.382,24.91c2.025,3.508 5.769,5.67 9.819,5.67c4.051,-0 7.794,-2.162 9.82,-5.67c4.733,-8.198 10.242,-17.74 14.268,-24.713c3.131,-5.423 10.066,-7.281 15.489,-4.15c2.798,1.615 5.882,3.396 8.807,5.084c6.778,3.914 9.101,12.583 5.187,19.361c-9.156,15.859 -24.768,42.9 -31.932,55.31c-2.488,4.309 -3.798,9.197 -3.798,14.173l-0,31.591c-0,6.262 -5.077,11.338 -11.339,11.338l-13.003,0c-6.263,0 -11.339,-5.076 -11.339,-11.338l0,-31.591Z" style="fill:none;stroke:#fefefe;stroke-width:2.36px;"/><path d="M103.514,255.316c-4.731,0 -9.269,1.88 -12.615,5.226c-3.346,3.345 -5.225,7.883 -5.225,12.615l-0,19.606c-0,1.424 -0.566,2.79 -1.573,3.797c-1.007,1.008 -2.373,1.573 -3.798,1.573l-24.94,0c-2.966,0 -5.37,-2.404 -5.37,-5.37l-0,-119.513c-0,-4.731 1.879,-9.269 5.225,-12.615c3.346,-3.345 7.884,-5.225 12.615,-5.225l39.249,-0c27.57,-0 49.953,22.383 49.953,49.953c0,27.57 -22.383,49.953 -49.953,49.953l-3.568,0Zm-17.84,-39.177c-0,5.872 4.76,10.633 10.632,10.633l10.776,-0c11.816,-0 21.409,-9.593 21.409,-21.409c-0,-11.816 -9.593,-21.408 -21.409,-21.408l-10.776,-0c-5.872,-0 -10.632,4.76 -10.632,10.632l-0,21.552Z" style="fill:none;stroke:#fefefe;stroke-width:2.36px;"/><path d="M460.323,255.316c-4.732,0 -9.27,1.88 -12.615,5.226c-3.346,3.345 -5.226,7.883 -5.226,12.615l0,19.606c0,1.424 -0.566,2.79 -1.573,3.797c-1.007,1.008 -2.373,1.573 -3.797,1.573l-24.94,0c-2.966,0 -5.371,-2.404 -5.371,-5.37l0,-119.513c0,-4.731 1.88,-9.269 5.226,-12.615c3.345,-3.345 7.883,-5.225 12.615,-5.225l39.249,-0c27.57,-0 49.953,22.383 49.953,49.953c-0,27.57 -22.383,49.953 -49.953,49.953l-3.568,0Zm-17.841,-39.177c0,5.872 4.761,10.633 10.633,10.633l10.776,-0c11.815,-0 21.408,-9.593 21.408,-21.409c0,-11.816 -9.593,-21.408 -21.408,-21.408l-10.776,-0c-5.872,-0 -10.633,4.76 -10.633,10.632l0,21.552Z" style="fill:none;stroke:#fefefe;stroke-width:2.36px;"/><path d="M208.356,244.612c-4.696,0 -8.504,3.807 -8.504,8.504l0,33.679c0,6.262 -5.076,11.338 -11.338,11.338l-13.004,0c-6.262,0 -11.338,-5.076 -11.338,-11.338l-0,-120.046c-0,-6.263 5.076,-11.339 11.338,-11.339l13.004,-0c6.262,-0 11.338,5.076 11.338,11.339l0,33.678c0,4.697 3.808,8.504 8.504,8.504l22.241,0c4.697,0 8.504,-3.807 8.504,-8.504l0,-33.678c0,-6.263 5.077,-11.339 11.339,-11.339l13.004,-0c6.262,-0 11.338,5.076 11.338,11.339l0,120.046c0,6.262 -5.076,11.338 -11.338,11.338l-13.004,0c-6.262,0 -11.339,-5.076 -11.339,-11.338l0,-33.679c0,-4.697 -3.807,-8.504 -8.504,-8.504l-22.241,0Z" style="fill:none;stroke:#fefefe;stroke-width:2.36px;"/><path d="M586.99,160.762c36.431,0 66.009,29.578 66.009,66.01c0,36.431 -29.578,66.009 -66.009,66.009c-36.432,0 -66.01,-29.578 -66.01,-66.009c0,-36.432 29.578,-66.01 66.01,-66.01Zm-0,35.681c-16.739,-0 -30.329,13.59 -30.329,30.329c-0,16.739 13.59,30.328 30.329,30.328c16.739,0 30.328,-13.589 30.328,-30.328c0,-16.739 -13.589,-30.329 -30.328,-30.329Z" style="fill:none;stroke:#fefefe;stroke-width:2.36px;"/><path d="M145.157,237.686c-9.166,10.784 -22.827,17.63 -38.075,17.63l-3.568,0c-4.731,0 -9.269,1.88 -12.615,5.226c-3.346,3.345 -5.225,7.883 -5.225,12.615l-0,19.606c-0,1.424 -0.566,2.79 -1.573,3.797c-1.007,1.008 -2.373,1.573 -3.798,1.573l-24.94,0c-2.966,0 -5.37,-2.404 -5.37,-5.37l-0,-53.239c12.582,-9.834 25.552,-13.575 39.894,-14.908c1.784,1.353 4.008,2.156 6.419,2.156l10.776,-0c3.009,-0 5.875,-0.623 8.474,-1.745c8.715,2.215 18.623,7.476 29.601,12.659Zm55.255,12.389c-0.361,0.945 -0.56,1.97 -0.56,3.041l0,33.679c0,6.262 -5.076,11.338 -11.338,11.338l-13.004,0c-6.262,0 -11.338,-5.076 -11.338,-11.338l-0,-41.165c11.248,3.859 23.36,6.174 36.24,4.445Zm74.37,-45.779l0,82.499c0,6.262 -5.076,11.338 -11.338,11.338l-13.004,0c-6.262,0 -11.339,-5.076 -11.339,-11.338l0,-33.679c0,-4.697 -3.807,-8.504 -8.504,-8.504l-11.334,0c3.884,-1.753 7.828,-3.934 11.828,-6.6c17.927,-11.952 32.179,-23.528 43.691,-33.716Zm41.778,-37.883l13.698,23.726c2.025,3.508 5.769,5.67 9.819,5.67c4.051,-0 7.794,-2.162 9.82,-5.67l14.268,-24.713c3.131,-5.423 10.066,-7.281 15.489,-4.15l8.807,5.084c6.778,3.914 9.101,12.583 5.187,19.361l-31.932,55.31c-2.488,4.309 -3.798,9.197 -3.798,14.173l-0,31.591c-0,6.262 -5.077,11.338 -11.339,11.338l-13.003,0c-6.263,0 -11.339,-5.076 -11.339,-11.338l0,-31.591c0,-4.976 -1.31,-9.864 -3.798,-14.173l-28.993,-50.218c8.107,-7.682 14.398,-13.886 19.53,-17.9c2.075,-1.622 4.588,-3.932 7.584,-6.5Zm188.329,67.481c-9.03,12.946 -24.032,21.422 -40.998,21.422l-3.568,0c-4.732,0 -9.27,1.88 -12.615,5.226c-3.346,3.345 -5.226,7.883 -5.226,12.615l0,19.606c0,1.424 -0.566,2.79 -1.573,3.797c-1.007,1.008 -2.373,1.573 -3.797,1.573l-24.94,0c-2.966,0 -5.371,-2.404 -5.371,-5.37l0,-119.513c0,-2.814 0.666,-5.56 1.909,-8.028c9.676,6.538 20.142,15.216 31.451,26.525c0.78,0.78 1.558,1.547 2.335,2.302c-0.009,0.178 -0.014,0.358 -0.014,0.538l0,21.552c0,5.872 4.761,10.633 10.633,10.633l10.776,-0c5.409,-0 10.353,-2.011 14.124,-5.326c9.222,5.38 18.174,9.356 26.874,12.448Zm117.161,48.804c-10.162,6.388 -22.183,10.083 -35.06,10.083c-32.221,0 -59.081,-23.136 -64.86,-53.687c15.389,3.923 29.967,6.031 43.848,9.54c5.452,5.242 12.858,8.466 21.012,8.466c0.962,0 1.913,-0.044 2.852,-0.132c8.951,4.292 17.608,10.125 26.007,18.524c2.351,2.351 4.408,4.762 6.201,7.206Z" style="fill:#fff;stroke:#fefefe;stroke-width:2.36px;"/></svg>