<?xml version="1.0" encoding="UTF-8" standalone="no"?><!DOCTYPE svg PUBLIC "-//W3C//DTD SVG 1.1//EN" "http://www.w3.org/Graphics/SVG/1.1/DTD/svg11.dtd"><svg width="100%" height="100%" viewBox="0 0 709 709" version="1.1" xmlns="http://www.w3.org/2000/svg" xmlns:xlink="http://www.w3.org/1999/xlink" xml:space="preserve" xmlns:serif="http://www.serif.com/" style="fill-rule:evenodd;clip-rule:evenodd;stroke-linejoin:round;stroke-miterlimit:2;"><path d="M694.488,598.819l0,63.779c0,17.601 -14.289,31.89 -31.89,31.89l-616.535,0c-17.6,0 -31.89,-14.289 -31.89,-31.89l0,-63.779c0,-17.601 14.29,-31.89 31.89,-31.89l616.535,0c17.601,0 31.89,14.289 31.89,31.89Z" style="fill:#fff;"/><path d="M651.969,42.52l-0,481.889c-0,15.645 -12.702,28.347 -28.347,28.347l-56.693,-0c-15.645,-0 -28.346,-12.702 -28.346,-28.347l-0,-481.889c-0,-15.645 12.701,-28.347 28.346,-28.347l56.693,0c15.645,0 28.347,12.702 28.347,28.347Z" style="fill:#fff;"/><path d="M170.079,42.52l-0,481.889c-0,15.645 -12.702,28.347 -28.347,28.347l-56.693,-0c-15.644,-0 -28.346,-12.702 -28.346,-28.347l-0,-481.889c-0,-15.645 12.702,-28.347 28.346,-28.347l56.693,0c15.645,0 28.347,12.702 28.347,28.347Z" style="fill:#fff;"/><path d="M651.969,374.173l-595.276,0c-15.645,0 -28.347,-12.701 -28.347,-28.346l0,-56.693c0,-15.645 12.702,-28.347 28.347,-28.347l595.276,0c15.644,0 28.346,12.702 28.346,28.347l-0,56.693c-0,15.645 -12.702,28.346 -28.346,28.346Z" style="fill:#fff;"/><path d="M358.583,419.528l-87.874,-0c-24.25,-0 -43.937,-19.688 -43.937,-43.937l-0,-116.221c-0,-24.249 19.687,-43.937 43.937,-43.937l87.874,0c24.249,0 43.937,19.688 43.937,43.937l-0,116.221c-0,24.249 -19.688,43.937 -43.937,43.937Z" style="fill:#fff;"/></svg>