<?xml version="1.0" encoding="UTF-8" standalone="no"?><!DOCTYPE svg PUBLIC "-//W3C//DTD SVG 1.1//EN" "http://www.w3.org/Graphics/SVG/1.1/DTD/svg11.dtd"><svg width="100%" height="100%" viewBox="0 0 709 709" version="1.1" xmlns="http://www.w3.org/2000/svg" xmlns:xlink="http://www.w3.org/1999/xlink" xml:space="preserve" xmlns:serif="http://www.serif.com/" style="fill-rule:evenodd;clip-rule:evenodd;stroke-linejoin:round;stroke-miterlimit:2;"><path d="M172.317,353.934c-3.069,-3.246 -3.884,-8.02 -2.064,-12.099c13.224,-29.649 66.674,-149.485 91.433,-204.995c1.907,-4.276 6.301,-6.887 10.968,-6.518c4.667,0.369 8.595,3.638 9.807,8.16c22.62,84.417 86.674,323.47 112.803,420.984c1.31,4.889 -0.868,10.043 -5.286,12.512c-4.418,2.469 -9.948,1.623 -13.425,-2.055c-57.109,-60.396 -178.049,-188.295 -204.236,-215.989Z" style="fill:#ffd400;"/><path d="M491.339,225.254c2.532,1.765 4.211,4.508 4.631,7.566c0.42,3.058 -0.458,6.152 -2.421,8.534c-18.585,22.553 -66.445,80.633 -90.102,109.343c-2.633,3.195 -6.83,4.651 -10.876,3.773c-4.046,-0.878 -7.262,-3.944 -8.334,-7.943c-12.412,-46.32 -42.417,-158.301 -56.719,-211.678c-1.202,-4.485 0.527,-9.243 4.328,-11.91c3.8,-2.667 8.863,-2.676 12.672,-0.02c40.557,28.268 119.249,83.117 146.821,102.335Z" style="fill:#ffd400;"/></svg>