<?xml version="1.0" encoding="UTF-8" standalone="no"?><!DOCTYPE svg PUBLIC "-//W3C//DTD SVG 1.1//EN" "http://www.w3.org/Graphics/SVG/1.1/DTD/svg11.dtd"><svg width="100%" height="100%" viewBox="0 0 709 709" version="1.1" xmlns="http://www.w3.org/2000/svg" xmlns:xlink="http://www.w3.org/1999/xlink" xml:space="preserve" xmlns:serif="http://www.serif.com/" style="fill-rule:evenodd;clip-rule:evenodd;stroke-linecap:round;stroke-linejoin:round;stroke-miterlimit:1.5;"><path d="M649.134,209.764l-0,294.803c-0,81.353 -66.049,147.402 -147.402,147.402l-294.803,-0c-81.353,-0 -147.401,-66.049 -147.401,-147.402l-0,-294.803c-0,-81.353 66.048,-147.402 147.401,-147.402l294.803,0c81.353,0 147.402,66.049 147.402,147.402Z" style="fill:none;stroke:#fff;stroke-width:75px;"/><path d="M254.971,386.759c-3.992,4.21 -10.146,5.562 -15.534,3.414c-5.389,-2.149 -8.924,-7.364 -8.924,-13.166l-0,-211.449c-0,-7.827 6.345,-14.173 14.173,-14.173l219.289,0c7.828,0 14.174,6.346 14.174,14.173l-0,211.449c-0,5.802 -3.536,11.017 -8.924,13.166c-5.389,2.148 -11.543,0.796 -15.535,-3.414c-27.139,-28.623 -69.662,-73.469 -89.074,-93.942c-2.677,-2.823 -6.396,-4.422 -10.285,-4.422c-3.89,0 -7.609,1.599 -10.285,4.422c-19.413,20.473 -61.935,65.319 -89.075,93.942Z" style="fill:#fff;"/></svg>